# xmcd
#
# Track frame offsets:
#	150
#	12137
#	23345
#	38352
#	54540
#	67687
#	83465
#	108087
#	119725
#	140845
#	158250
#
# Disc length: 2378 seconds
#
# Revision: 0
# Processed by: cddbd v1.5.2PL0 Copyright (c) Steve Scherf et al.
# Submitted via: EZCDAudioConverter 4.0.1.1
#
DISCID=7009480b
DTITLE=Zeno and The Skydogs - Rockin' Beale Street Blues
DYEAR=1995
DGENRE=Blues
TTITLE0=With Regards To Stevie
TTITLE1=Killin Blues
TTITLE2=Every Day I Got The Blues
TTITLE3=I Don't Want To Hurt You
TTITLE4=That's Love
TTITLE5=Born Under A Bad Sign
TTITLE6=Love Denied
TTITLE7=THat's How Lies Get Started
TTITLE8=It Hurts Me Too
TTITLE9=Louisiana Mojo
TTITLE10=People Get Ready
EXTD=
EXTT0=
EXTT1=
EXTT2=
EXTT3=
EXTT4=
EXTT5=
EXTT6=
EXTT7=
EXTT8=
EXTT9=
EXTT10=
PLAYORDER=
